<svg width="24" height="18" viewBox="0 0 24 18" fill="none" xmlns="http://www.w3.org/2000/svg">
<path d="M0 2.11556V1.5C0 1.10218 0.158035 0.720644 0.43934 0.43934C0.720644 0.158035 1.10218 0 1.5 0L22.5 0C22.8978 0 23.2794 0.158035 23.5607 0.43934C23.842 0.720644 24 1.10218 24 1.5V2.11556L12 9.61556L0 2.11556ZM12.3975 11.1362C12.2783 11.2106 12.1405 11.2501 12 11.2501C11.8595 11.2501 11.7217 11.2106 11.6025 11.1362L0 3.88444V16.5C0 16.8978 0.158035 17.2794 0.43934 17.5607C0.720644 17.842 1.10218 18 1.5 18H22.5C22.8978 18 23.2794 17.842 23.5607 17.5607C23.842 17.2794 24 16.8978 24 16.5V3.88444L12.3975 11.1362Z" fill="black"/>

</svg>
