<svg width="16" height="16" viewBox="0 0 16 16" fill="none" xmlns="http://www.w3.org/2000/svg">
<path d="M11.56 3.64001C11.4018 3.64001 11.2471 3.68693 11.1155 3.77483C10.984 3.86274 10.8814 3.98768 10.8209 4.13386C10.7603 4.28004 10.7445 4.4409 10.7754 4.59608C10.8062 4.75127 10.8824 4.89381 10.9943 5.0057C11.1062 5.11758 11.2487 5.19377 11.4039 5.22464C11.5591 5.25551 11.7199 5.23966 11.8661 5.17911C12.0123 5.11856 12.1372 5.01603 12.2252 4.88447C12.3131 4.75291 12.36 4.59823 12.36 4.44001C12.36 4.22784 12.2757 4.02435 12.1257 3.87432C11.9756 3.7243 11.7722 3.64001 11.56 3.64001ZM14.6266 5.25334C14.6137 4.70021 14.5101 4.15295 14.32 3.63334C14.1505 3.18877 13.8866 2.7862 13.5466 2.45334C13.2165 2.11163 12.813 1.84946 12.3666 1.68668C11.8484 1.49078 11.3005 1.38482 10.7466 1.37334C10.04 1.33334 9.81331 1.33334 7.99998 1.33334C6.18665 1.33334 5.95998 1.33334 5.25331 1.37334C4.69941 1.38482 4.15154 1.49078 3.63331 1.68668C3.18776 1.85111 2.7846 2.11305 2.45331 2.45334C2.1116 2.78346 1.84943 3.18697 1.68665 3.63334C1.49075 4.15157 1.38479 4.69944 1.37331 5.25334C1.33331 5.96001 1.33331 6.18668 1.33331 8.00001C1.33331 9.81334 1.33331 10.04 1.37331 10.7467C1.38479 11.3006 1.49075 11.8484 1.68665 12.3667C1.84943 12.813 2.1116 13.2166 2.45331 13.5467C2.7846 13.887 3.18776 14.1489 3.63331 14.3133C4.15154 14.5092 4.69941 14.6152 5.25331 14.6267C5.95998 14.6667 6.18665 14.6667 7.99998 14.6667C9.81331 14.6667 10.04 14.6667 10.7466 14.6267C11.3005 14.6152 11.8484 14.5092 12.3666 14.3133C12.813 14.1506 13.2165 13.8884 13.5466 13.5467C13.8881 13.2151 14.1522 12.8121 14.32 12.3667C14.5101 11.8471 14.6137 11.2998 14.6266 10.7467C14.6266 10.04 14.6666 9.81334 14.6666 8.00001C14.6666 6.18668 14.6666 5.96001 14.6266 5.25334ZM13.4266 10.6667C13.4218 11.0899 13.3451 11.5091 13.2 11.9067C13.0935 12.1968 12.9226 12.459 12.7 12.6733C12.4837 12.8937 12.2221 13.0643 11.9333 13.1733C11.5358 13.3185 11.1165 13.3952 10.6933 13.4C10.0266 13.4333 9.77998 13.44 8.02665 13.44C6.27331 13.44 6.02665 13.44 5.35998 13.4C4.92057 13.4082 4.48304 13.3406 4.06665 13.2C3.7905 13.0854 3.54088 12.9152 3.33331 12.7C3.11204 12.4858 2.94321 12.2235 2.83998 11.9333C2.67722 11.5301 2.58694 11.1013 2.57331 10.6667C2.57331 10 2.53331 9.75334 2.53331 8.00001C2.53331 6.24668 2.53331 6.00001 2.57331 5.33334C2.5763 4.90071 2.65528 4.47197 2.80665 4.06668C2.92401 3.78528 3.10416 3.53445 3.33331 3.33334C3.53586 3.10412 3.78617 2.92207 4.06665 2.80001C4.47301 2.65337 4.90131 2.57673 5.33331 2.57334C5.99998 2.57334 6.24665 2.53334 7.99998 2.53334C9.75331 2.53334 9.99998 2.53334 10.6666 2.57334C11.0898 2.5782 11.5091 2.65484 11.9066 2.80001C12.2096 2.91244 12.4815 3.09524 12.7 3.33334C12.9184 3.53813 13.0892 3.7885 13.2 4.06668C13.3481 4.47263 13.4248 4.9012 13.4266 5.33334C13.46 6.00001 13.4666 6.24668 13.4666 8.00001C13.4666 9.75334 13.46 10 13.4266 10.6667ZM7.99998 4.58001C7.32385 4.58133 6.66329 4.78303 6.10175 5.15962C5.54021 5.53622 5.1029 6.07081 4.84507 6.69585C4.58724 7.32088 4.52046 8.00832 4.65318 8.6713C4.78589 9.33427 5.11214 9.94303 5.5907 10.4207C6.06926 10.8983 6.67865 11.2234 7.34189 11.3548C8.00512 11.4862 8.69242 11.4181 9.31696 11.159C9.94149 10.9 10.4752 10.4616 10.8507 9.89937C11.2262 9.33709 11.4266 8.67614 11.4266 8.00001C11.4275 7.55008 11.3394 7.10441 11.1675 6.68865C10.9955 6.27288 10.743 5.89522 10.4246 5.57738C10.1061 5.25954 9.72795 5.0078 9.31184 4.83663C8.89574 4.66546 8.44991 4.57825 7.99998 4.58001ZM7.99998 10.22C7.5609 10.22 7.13169 10.0898 6.76661 9.84587C6.40154 9.60194 6.11699 9.25522 5.94897 8.84957C5.78094 8.44392 5.73698 7.99755 5.82264 7.56691C5.9083 7.13627 6.11973 6.74071 6.4302 6.43023C6.74067 6.11976 7.13624 5.90833 7.56688 5.82267C7.99752 5.73701 8.44388 5.78097 8.84954 5.949C9.25519 6.11702 9.60191 6.40157 9.84584 6.76664C10.0898 7.13172 10.22 7.56094 10.22 8.00001C10.22 8.29154 10.1626 8.58022 10.051 8.84957C9.93943 9.11891 9.7759 9.36364 9.56976 9.56979C9.36361 9.77593 9.11888 9.93946 8.84954 10.051C8.58019 10.1626 8.29151 10.22 7.99998 10.22Z" fill="white"/>
</svg>
