<svg width="24" height="24" viewBox="0 0 24 24" fill="none" xmlns="http://www.w3.org/2000/svg">
<path d="M17.3082 14.6839L15.5777 15.6588C15.37 15.7757 15.1298 15.8214 14.8937 15.789C14.6576 15.7566 14.4386 15.6478 14.2701 15.4792L8.49437 9.70346C8.32592 9.53492 8.2172 9.31592 8.18478 9.07985C8.15235 8.84378 8.19801 8.60359 8.31478 8.39587L9.28968 6.66539C9.46516 6.35394 9.53387 5.9936 9.4853 5.63943C9.43673 5.28526 9.27356 4.95672 9.02071 4.70401L6.42706 2.11035C6.27504 1.95826 6.09455 1.83761 5.89589 1.7553C5.69723 1.67298 5.4843 1.63062 5.26926 1.63062C5.05423 1.63062 4.8413 1.67298 4.64264 1.7553C4.44398 1.83761 4.26349 1.95826 4.11147 2.11035L2.93382 3.28718C2.24516 3.97583 1.8065 4.87494 1.68758 5.84155C1.56867 6.80816 1.77633 7.78678 2.27754 8.6218L2.86844 9.60663C5.88601 14.6358 10.1452 18.8053 15.2375 21.715L15.3542 21.7821C17.0938 22.776 19.2431 22.4864 20.6359 21.0944L21.8657 19.8646C22.0178 19.7125 22.1384 19.5321 22.2207 19.3334C22.3031 19.1347 22.3454 18.9218 22.3454 18.7068C22.3454 18.4917 22.3031 18.2788 22.2207 18.0801C22.1384 17.8815 22.0178 17.701 21.8657 17.549L19.2704 14.9537C19.0177 14.7005 18.6891 14.537 18.3347 14.4883C17.9803 14.4396 17.6198 14.5083 17.3082 14.6839Z" fill="black"/>
</svg>
