<svg width="16" height="16" viewBox="0 0 16 16" fill="none" xmlns="http://www.w3.org/2000/svg">
<path d="M14.3107 1.82687C12.3054 2.65727 3.7075 6.2187 1.33182 7.18942C-0.261462 7.81118 0.671178 8.39407 0.671178 8.39407C0.671178 8.39407 2.03118 8.86031 3.19694 9.21007C4.3627 9.55983 4.98446 9.17119 4.98446 9.17119L10.4635 5.47951C12.4064 4.15839 11.9401 5.24638 11.4739 5.71262C10.4635 6.72302 8.79262 8.31615 7.39374 9.59855C6.77198 10.1425 7.08286 10.6089 7.35486 10.8421C8.36526 11.6969 11.1241 13.4456 11.2797 13.5622C12.1006 14.1433 13.7153 14.98 13.9609 13.2125L14.9325 7.11167C15.2433 5.05215 15.5542 3.14798 15.5931 2.60398C15.7096 1.28286 14.3107 1.82687 14.3107 1.82687Z" fill="white"/>
</svg>
