<svg width="24" height="24" viewBox="0 0 24 24" fill="none" xmlns="http://www.w3.org/2000/svg">
<path d="M7.82798 12.026H8.78398C8.78398 12.026 9.07298 11.994 9.21998 11.835C9.35598 11.689 9.35098 11.415 9.35098 11.415C9.35098 11.415 9.33198 10.132 9.92798 9.943C10.515 9.757 11.269 11.183 12.068 11.732C12.672 12.147 13.131 12.056 13.131 12.056L15.268 12.026C15.268 12.026 16.386 11.957 15.856 11.078C15.813 11.006 15.547 10.428 14.267 9.24C12.927 7.996 13.107 8.198 14.721 6.047C15.704 4.737 16.097 3.937 15.974 3.595C15.857 3.269 15.134 3.355 15.134 3.355L12.73 3.369C12.73 3.369 12.552 3.345 12.419 3.424C12.29 3.502 12.207 3.682 12.207 3.682C12.207 3.682 11.826 4.696 11.318 5.558C10.247 7.377 9.81798 7.473 9.64298 7.36C9.23598 7.097 9.33798 6.302 9.33798 5.738C9.33798 3.975 9.60498 3.24 8.81698 3.05C8.55498 2.987 8.36298 2.945 7.69398 2.938C6.83598 2.929 6.10898 2.941 5.69798 3.142C5.42398 3.276 5.21298 3.575 5.34198 3.592C5.50098 3.613 5.86098 3.689 6.05198 3.949C6.29898 4.284 6.28998 5.038 6.28998 5.038C6.28998 5.038 6.43198 7.113 5.95898 7.371C5.63398 7.548 5.18898 7.187 4.23398 5.536C3.74498 4.691 3.37498 3.756 3.37498 3.756C3.37498 3.756 3.30398 3.582 3.17698 3.489C3.02298 3.376 2.80698 3.34 2.80698 3.34L0.520979 3.354C0.520979 3.354 0.177979 3.364 0.0519791 3.513C-0.0600209 3.646 0.0429791 3.92 0.0429791 3.92C0.0429791 3.92 1.83298 8.107 3.85898 10.218C5.71798 12.153 7.82798 12.026 7.82798 12.026Z" fill="white"/>
</svg>
